<?xml version="1.0" standalone="no"?><!DOCTYPE svg PUBLIC "-//W3C//DTD SVG 1.1//EN" "http://www.w3.org/Graphics/SVG/1.1/DTD/svg11.dtd"><svg t="1496880693710" class="icon" style="" viewBox="0 0 1024 1024" version="1.1" xmlns="http://www.w3.org/2000/svg" p-id="2397" xmlns:xlink="http://www.w3.org/1999/xlink" width="200" height="200"><defs><style type="text/css"></style></defs><path d="M853.312 0l-682.624 0c-93.888 0-170.688 76.8-170.688 170.656l0 682.656c0 93.888 76.8 170.688 170.688 170.688l682.624 0c93.952 0 170.688-76.8 170.688-170.688l0-682.656c0-93.888-76.736-170.656-170.688-170.656zM256 256l512 0c9.152 0 18.016 1.952 26.144 5.664l-282.144 329.152-282.144-329.184c8.128-3.712 16.992-5.664 26.144-5.664zM192 704l0-384c0-1.344 0.064-2.688 0.128-4l187.648 218.944-185.6 185.6c-1.44-5.344-2.208-10.88-2.208-16.544zM768 768l-512 0c-5.664 0-11.2-0.768-16.544-2.208l182.112-182.112 90.432 105.504 90.432-105.504 182.112 182.112c-5.344 1.44-10.88 2.208-16.544 2.208zM832 704c0 5.664-0.768 11.2-2.208 16.544l-185.6-185.6 187.648-218.944c0.096 1.312 0.128 2.656 0.128 4l0 384z" p-id="2398" fill="#1296db"></path></svg>