<?xml version="1.0" standalone="no"?><!DOCTYPE svg PUBLIC "-//W3C//DTD SVG 1.1//EN" "http://www.w3.org/Graphics/SVG/1.1/DTD/svg11.dtd"><svg t="1497347437825" class="icon" style="" viewBox="0 0 1024 1024" version="1.1" xmlns="http://www.w3.org/2000/svg" p-id="2783" xmlns:xlink="http://www.w3.org/1999/xlink" width="200" height="200"><defs><style type="text/css"></style></defs><path d="M1000.572 331.571L525.144 148.714a37.028 37.028 0 0 0-26.286 0L23.43 331.571C9.322 337.001 0 350.571 0 365.714s9.322 28.714 23.428 34.143l49.715 19.144v169.5C51.893 596.071 36.57 616.142 36.57 640v73.143c0 23.857 15.322 43.928 36.572 51.5v222.786h36.571V764.643c21.25-7.572 36.572-27.643 36.572-51.5V640c0-23.857-15.322-43.928-36.572-51.5V433.035l73.143 28.144V729.25c0 61.82 147.357 111.892 329.143 111.892 181.75 0 329.143-50.072 329.143-111.892V461.179l159.43-61.322c14.105-5.429 23.427-19 23.427-34.143s-9.322-28.714-23.428-34.143zM512 768c-139.5 0-231.285-31.356-256-50.714v-40.142c52.286 32.499 147.178 54.285 256 54.285s203.714-21.786 256-54.287v40.108C743.285 736.644 651.465 768 512 768z m256-136.5c-23.393 25-111.322 63.357-256 63.357-144.644 0-232.607-38.358-256-63.356V489.287l242.856 93.43c4.25 1.607 8.679 2.428 13.144 2.428s8.892-0.821 13.144-2.429L768 489.286V631.5zM512 509.393L138.465 365.714 512 222.036l373.535 143.678L512 509.392z" fill="#1296db" p-id="2784"></path></svg>