<?xml version="1.0" standalone="no"?><!DOCTYPE svg PUBLIC "-//W3C//DTD SVG 1.1//EN" "http://www.w3.org/Graphics/SVG/1.1/DTD/svg11.dtd"><svg t="1497347338420" class="icon" style="" viewBox="0 0 1024 1024" version="1.1" xmlns="http://www.w3.org/2000/svg" p-id="2168" xmlns:xlink="http://www.w3.org/1999/xlink" width="200" height="200"><defs><style type="text/css"></style></defs><path d="M54.204894 1003.859039a68.675866 68.675866 0 0 1-20.069961-48.605905V137.010732c0-38.023926 31.128939-68.743866 68.469867-68.743865H583.269861v68.265866s-470.151082 0.341999-480.664061 0.477999a518093.358099 518093.358099 0 0 0 0 818.242402c5.733989 0.205 159.879688 0.273999 326.996361 0.342 199.065611 0 416.562186-0.137 423.526173 0-0.069-10.03498 0.204-468.309085 0.203999-468.309086H921.5992v468.309086c0 37.682926-31.129939 68.402866-68.402866 68.402866h-750.658534a68.061867 68.061867 0 0 1-48.332906-20.138961z m760.488515-940.576163a68.266867 68.266867 0 0 1 96.802811-0.409999l48.399905 48.401906c26.624948 26.623948 26.282949 70.109863-0.408999 96.801811L553.642919 613.920801H408.917201v-144.929717l405.709208-405.708208zM477.047068 497.390029v48.263905h59.323884c21.162959-32.220937 34.679932-45.737911 171.826665-182.953642l202.888604-202.888604c0.272999-0.205-47.922906-48.673905-47.922907-48.673905L660.001711 314.435386 470.83508 503.670016l6.279988-6.279987zM170.667667 716.7986c0-18.841963 14.676971-34.132933 33.995933-34.132933h273.339466c18.773963 0 33.996934 15.837969 33.996934 34.132933 0 18.841963-14.676971 34.132933-33.996934 34.132933h-273.339466a34.405933 34.405933 0 0 1-33.995933-34.132933z m0 136.532733c0-18.840963 15.15497-34.132933 34.815932-34.132933H750.249535a34.815932 34.815932 0 0 1 34.815932 34.132933c0 18.841963-15.15597 34.133933-34.815932 34.133934H205.483599a34.815932 34.815932 0 0 1-34.815932-34.133934z m570.298886-692.631647a33.654934 33.654934 0 0 1 47.922906-0.341999l64.715874 64.716873a34.269933 34.269933 0 0 1-0.273 47.991907 33.654934 33.654934 0 0 1-47.990906 0.272999l-64.716874-64.716873a34.269933 34.269933 0 0 1 0.341-47.922907z" fill="#1296db" p-id="2169"></path><path d="M512 68.266867h136.532733v68.265866H512V68.266867zM853.332333 409.5992H921.5992v136.532733h-68.266867V409.5992z" fill="#1296db" p-id="2170"></path></svg>